<svg xmlns="http://www.w3.org/2000/svg" xmlns:xlink="http://www.w3.org/1999/xlink" width="2000" zoomAndPan="magnify" viewBox="0 0 1500 1499.999933" height="2000" preserveAspectRatio="xMidYMid meet" version="1.0"><defs><clipPath id="9114305fbc"><path d="M 0 523 L 254 523 L 254 886 L 0 886 Z M 0 523 " clip-rule="nonzero"/></clipPath><clipPath id="a3cd04bf5a"><path d="M -953.757812 0 L 995.488281 54.207031 L 953.957031 1547.628906 L -995.289062 1493.421875 Z M -953.757812 0 " clip-rule="nonzero"/></clipPath><clipPath id="f3d48346fa"><path d="M -953.757812 0 L 995.488281 54.207031 L 953.957031 1547.628906 L -995.289062 1493.421875 Z M -953.757812 0 " clip-rule="nonzero"/></clipPath><clipPath id="34558eb42b"><path d="M 0 296 L 692 296 L 692 1195 L 0 1195 Z M 0 296 " clip-rule="nonzero"/></clipPath><clipPath id="b1c7cc7989"><path d="M -953.757812 0 L 995.488281 54.207031 L 953.957031 1547.628906 L -995.289062 1493.421875 Z M -953.757812 0 " clip-rule="nonzero"/></clipPath><clipPath id="22725665e8"><path d="M -953.757812 0 L 995.488281 54.207031 L 953.957031 1547.628906 L -995.289062 1493.421875 Z M -953.757812 0 " clip-rule="nonzero"/></clipPath><clipPath id="d26a4ecafd"><path d="M 0 49 L 964 49 L 964 1498 L 0 1498 Z M 0 49 " clip-rule="nonzero"/></clipPath><clipPath id="3a718be035"><path d="M -953.757812 0 L 995.488281 54.207031 L 953.957031 1547.628906 L -995.289062 1493.421875 Z M -953.757812 0 " clip-rule="nonzero"/></clipPath><clipPath id="a11e360848"><path d="M -953.757812 0 L 995.488281 54.207031 L 953.957031 1547.628906 L -995.289062 1493.421875 Z M -953.757812 0 " clip-rule="nonzero"/></clipPath><clipPath id="2e3ea65bee"><path d="M 1245 410 L 1477 410 L 1477 640.824219 L 1245 640.824219 Z M 1245 410 " clip-rule="nonzero"/></clipPath><clipPath id="49309d91e9"><path d="M 944.757812 105.8125 L 1310 105.8125 L 1310 471 L 944.757812 471 Z M 944.757812 105.8125 " clip-rule="nonzero"/></clipPath></defs><rect x="-150" width="1800" fill="#ffffff" y="-149.999993" height="1799.99992" fill-opacity="1"/><rect x="-150" width="1800" fill="#000000" y="-149.999993" height="1799.99992" fill-opacity="1"/><g clip-path="url(#9114305fbc)"><g clip-path="url(#a3cd04bf5a)"><g clip-path="url(#f3d48346fa)"><path fill="#ffffff" d="M 53.355469 526.480469 C 70.730469 529.402344 67.519531 557.320312 50.144531 554.402344 C -40.328125 538.082031 -123.222656 584.894531 -176.796875 657.691406 C -200.007812 689.519531 -220.527344 726.699219 -220.855469 767.6875 C -221.183594 808.675781 -215.820312 805.578125 -203.628906 819.71875 C -191.4375 833.859375 -171.363281 841.722656 -153.210938 845.882812 C -108.03125 856.070312 -60.179688 857.804688 -14.300781 857.457031 C 28.738281 857.03125 73.457031 854.621094 114.796875 842.375 C 150.402344 832 184.628906 812.65625 205.023438 779.9375 C 225.417969 747.21875 231.3125 710.441406 223.765625 675.324219 C 215.855469 638.570312 185.695312 613.78125 156.175781 595.101562 C 123.875 574.3125 86.851562 562.730469 49.738281 554.390625 C 12.625 546.050781 35.601562 522.742188 52.949219 526.46875 C 139.265625 546.324219 252.011719 593.707031 253.914062 700.515625 C 254.792969 741.945312 240.617188 784.578125 213.371094 815.484375 C 183.199219 849.554688 140.089844 867.027344 96.8125 875.972656 C 47 886.359375 -5.785156 886.921875 -56.472656 885.105469 C -107.164062 883.289062 -110.363281 881.578125 -137.042969 877.589844 C -158.867188 874.140625 -181.457031 869.046875 -200.621094 857.554688 C -240.15625 834.128906 -253.484375 787.886719 -246.160156 743.441406 C -238.800781 697.777344 -213.304688 656.675781 -184.34375 622.570312 C -125.15625 552.367188 -38.34375 510.535156 52.941406 526.875 Z M 53.355469 526.480469 " fill-opacity="1" fill-rule="nonzero"/></g></g></g><g clip-path="url(#34558eb42b)"><g clip-path="url(#b1c7cc7989)"><g clip-path="url(#22725665e8)"><path fill="#ffffff" d="M -663.1875 806.9375 C -676.886719 817.925781 -694.148438 796.335938 -680.433594 784.945312 C -588.664062 710.777344 -493.757812 640.757812 -398.472656 571.558594 C -314.78125 510.5625 -230.691406 449.980469 -148.960938 386.496094 C -127.394531 370.046875 -106.222656 353.179688 -85.445312 335.898438 C -66.765625 320.992188 -47.65625 305.285156 -24.34375 299.03125 C 23.089844 286.550781 69.609375 321.535156 109.191406 343.339844 C 300.679688 449.332031 491.777344 554.910156 683.265625 660.90625 C 691.660156 665.605469 695.78125 677.894531 687.0625 684.960938 C 589.960938 761.007812 492.464844 836.640625 395.363281 912.691406 C 298.261719 988.738281 223.582031 1046.738281 137.703125 1113.359375 C 116.128906 1130.210938 94.96875 1146.671875 73.390625 1163.527344 C 54.734375 1177.621094 34.464844 1191.265625 11.242188 1194.273438 C -34.367188 1199.5 -76.480469 1166.667969 -114.011719 1144.109375 C -302.480469 1031.703125 -491.355469 919.289062 -679.828125 806.882812 C -695.003906 797.9375 -678.949219 775.246094 -663.769531 784.191406 C -560.355469 845.925781 -456.9375 907.660156 -353.519531 969.394531 C -262.472656 1023.480469 -171.4375 1077.96875 -80.390625 1132.054688 C -60.820312 1143.558594 -41.292969 1156.683594 -19.5625 1163.378906 C 2.171875 1170.070312 23.027344 1164.5625 41.640625 1152.089844 C 63.554688 1137.679688 83.523438 1120.375 103.859375 1104.296875 C 124.195312 1088.222656 144.523438 1072.550781 165.265625 1056.484375 C 333.304688 925.578125 501.355469 794.265625 669.800781 663.371094 C 671.199219 671.53125 672.199219 679.269531 673.597656 687.425781 C 568.0625 628.878906 462.121094 570.324219 356.585938 511.777344 C 263.035156 460.058594 169.09375 407.921875 75.546875 356.203125 C 55.558594 345.09375 34.828125 331.527344 12.238281 326.433594 C -11.964844 320.890625 -32.515625 330.0625 -51.996094 344.539062 C -93.449219 375.453125 -132.949219 409.265625 -174.007812 440.597656 C -336.15625 563.953125 -504.542969 678.207031 -663.175781 806.535156 Z M -663.1875 806.9375 " fill-opacity="1" fill-rule="nonzero"/></g></g></g><g clip-path="url(#d26a4ecafd)"><g clip-path="url(#3a718be035)"><g clip-path="url(#a11e360848)"><path fill="#ffffff" d="M -958.582031 364.792969 C -961.734375 346.84375 -934.421875 342.730469 -931.675781 360.667969 C -918.089844 441.417969 -905.734375 522.542969 -894.1875 603.640625 C -853.160156 894.613281 -825.183594 1187.65625 -810.207031 1481.148438 C -815.378906 1477.351562 -820.539062 1473.148438 -825.710938 1469.351562 C -802.476562 1465.941406 -779.234375 1462.121094 -756 1458.707031 C -568.484375 1430.230469 -380.5625 1401.765625 -193.035156 1372.882812 C -5.515625 1344.40625 182.40625 1315.941406 369.933594 1287.058594 C 463.28125 1273.011719 557.046875 1258.570312 650.394531 1244.523438 C 697.679688 1237.3125 744.5625 1230.089844 791.851562 1222.882812 C 815.082031 1219.46875 838.328125 1215.652344 861.558594 1212.238281 C 880.714844 1209.523438 903.460938 1208.9375 920.363281 1199.664062 C 937.261719 1190.394531 936.96875 1171.710938 935.023438 1154.203125 C 932.015625 1130.980469 928.613281 1107.34375 925.605469 1084.121094 C 919.242188 1035.640625 912.480469 986.742188 906.117188 938.261719 C 892.996094 840.878906 879.859375 743.902344 866.738281 646.523438 C 840.875 452.585938 814.59375 259.039062 788.730469 65.101562 C 793.902344 68.898438 799.0625 73.101562 804.234375 76.898438 C 674.066406 86.671875 544.261719 98.082031 414.363281 112.738281 C 186.339844 138.058594 -41.082031 171.109375 -266.761719 214.355469 C -494.085938 258.367188 -720.046875 311.753906 -942.671875 376.601562 C -959.449219 381.410156 -963.550781 353.695312 -946.773438 348.882812 C -821.550781 312.585938 -695.203125 279.566406 -568.144531 250.21875 C -344.660156 198.386719 -118.621094 156.773438 108.386719 124.117188 C 337.851562 90.71875 568.675781 66.691406 800.125 49.585938 C 807.445312 48.976562 814.625 53.640625 815.625 61.382812 C 818.996094 86.238281 822.375 110.6875 825.742188 135.542969 C 852.335938 332.34375 878.527344 529.132812 905.121094 725.933594 C 918.210938 824.53125 931.695312 923.546875 944.78125 1022.144531 C 948.152344 1047 951.53125 1071.449219 954.898438 1096.304688 C 957.929688 1118.714844 962.570312 1141.574219 963.15625 1164.320312 C 963.839844 1183.417969 960.089844 1201.582031 946.320312 1215 C 933.386719 1227.628906 914.582031 1232.382812 897.457031 1235.15625 C 802.429688 1251.183594 707.085938 1263.957031 612.09375 1278.773438 C 517.101562 1293.585938 422.132812 1307.585938 327.152344 1321.996094 C 135.558594 1351.167969 -55.632812 1380.355469 -247.230469 1409.53125 C -438.824219 1438.707031 -630.015625 1467.894531 -821.609375 1497.070312 C -828.132812 1498.105469 -836.921875 1492.992188 -837.113281 1485.273438 C -841.335938 1403.5625 -846.359375 1321.429688 -852.609375 1239.664062 C -874.90625 946.777344 -910.222656 654.75 -958.582031 364.792969 Z M -958.582031 364.792969 " fill-opacity="1" fill-rule="nonzero"/></g></g></g><path fill="#ffffff" d="M 1126.542969 519.945312 C 1121.859375 519.945312 1117.175781 519.804688 1112.5 519.519531 C 1107.824219 519.234375 1103.160156 518.804688 1098.511719 518.234375 C 1093.859375 517.664062 1089.230469 516.949219 1084.625 516.09375 C 1080.019531 515.238281 1075.441406 514.242188 1070.898438 513.105469 C 1066.351562 511.96875 1061.847656 510.695312 1057.378906 509.28125 C 1052.910156 507.867188 1048.492188 506.320312 1044.121094 504.632812 C 1039.75 502.949219 1035.433594 501.132812 1031.171875 499.183594 C 1026.910156 497.234375 1022.714844 495.15625 1018.582031 492.949219 C 1014.449219 490.738281 1010.386719 488.40625 1006.398438 485.953125 C 1002.410156 483.496094 998.5 480.917969 994.667969 478.222656 C 990.835938 475.523438 987.089844 472.714844 983.433594 469.785156 C 979.773438 466.859375 976.207031 463.824219 972.734375 460.679688 C 969.261719 457.53125 965.890625 454.285156 962.617188 450.929688 C 959.34375 447.578125 956.179688 444.128906 953.117188 440.582031 C 950.054688 437.035156 947.105469 433.398438 944.269531 429.667969 C 941.429688 425.941406 938.710938 422.128906 936.105469 418.234375 C 933.503906 414.339844 931.023438 410.367188 928.660156 406.320312 C 926.300781 402.273438 924.070312 398.15625 921.960938 393.972656 C 919.855469 389.785156 917.878906 385.542969 916.03125 381.234375 C 914.183594 376.929688 912.472656 372.570312 910.894531 368.160156 C 909.3125 363.75 907.871094 359.292969 906.566406 354.792969 C 905.261719 350.292969 904.09375 345.757812 903.070312 341.1875 C 902.042969 336.613281 901.15625 332.015625 900.410156 327.390625 C 899.667969 322.765625 899.066406 318.121094 898.605469 313.457031 C 898.144531 308.796875 897.832031 304.125 897.65625 299.441406 C 897.484375 294.757812 897.457031 290.074219 897.570312 285.390625 C 897.6875 280.707031 897.945312 276.03125 898.347656 271.363281 C 898.75 266.695312 899.292969 262.046875 899.980469 257.410156 C 900.667969 252.777344 901.5 248.167969 902.46875 243.582031 C 903.441406 239 904.550781 234.449219 905.800781 229.933594 C 907.050781 225.417969 908.4375 220.945312 909.960938 216.515625 C 911.488281 212.085938 913.144531 207.707031 914.941406 203.378906 C 916.734375 199.050781 918.65625 194.78125 920.714844 190.570312 C 922.769531 186.359375 924.953125 182.21875 927.261719 178.140625 C 929.570312 174.066406 932.003906 170.0625 934.5625 166.136719 C 937.117188 162.210938 939.789062 158.363281 942.582031 154.601562 C 945.375 150.839844 948.277344 147.167969 951.296875 143.582031 C 954.3125 139.996094 957.4375 136.507812 960.667969 133.117188 C 963.898438 129.722656 967.234375 126.433594 970.664062 123.246094 C 974.097656 120.058594 977.628906 116.980469 981.25 114.007812 C 984.871094 111.035156 988.582031 108.179688 992.378906 105.433594 C 996.179688 102.691406 1000.058594 100.066406 1004.015625 97.5625 C 1007.976562 95.054688 1012.007812 92.675781 1016.113281 90.417969 C 1020.21875 88.160156 1024.390625 86.03125 1028.625 84.027344 C 1032.863281 82.027344 1037.15625 80.15625 1041.507812 78.417969 C 1045.855469 76.679688 1050.257812 75.078125 1054.707031 73.609375 C 1059.15625 72.140625 1063.644531 70.8125 1068.175781 69.617188 C 1072.707031 68.425781 1077.269531 67.375 1081.867188 66.460938 C 1086.460938 65.550781 1091.082031 64.78125 1095.726562 64.152344 C 1100.367188 63.523438 1105.023438 63.039062 1109.699219 62.695312 C 1114.371094 62.351562 1119.050781 62.152344 1123.734375 62.097656 C 1128.417969 62.042969 1133.101562 62.132812 1137.78125 62.363281 C 1142.460938 62.597656 1147.128906 62.972656 1151.785156 63.492188 C 1156.441406 64.007812 1161.078125 64.671875 1165.695312 65.472656 C 1170.308594 66.277344 1174.894531 67.222656 1179.453125 68.308594 C 1184.011719 69.390625 1188.53125 70.617188 1193.015625 71.976562 C 1197.496094 73.339844 1201.933594 74.839844 1206.324219 76.476562 C 1210.714844 78.109375 1215.050781 79.878906 1219.335938 81.78125 C 1223.617188 83.679688 1227.835938 85.710938 1231.992188 87.871094 C 1236.152344 90.03125 1240.238281 92.316406 1244.253906 94.730469 C 1248.273438 97.140625 1252.210938 99.671875 1256.074219 102.324219 C 1259.933594 104.980469 1263.710938 107.75 1267.402344 110.632812 C 1271.09375 113.519531 1274.695312 116.515625 1278.203125 119.621094 C 1281.710938 122.726562 1285.117188 125.9375 1288.429688 129.253906 C 1290.417969 131.238281 1292.367188 133.257812 1294.28125 135.316406 C 1296.195312 137.375 1298.070312 139.46875 1299.90625 141.59375 C 1301.742188 143.71875 1303.539062 145.878906 1305.296875 148.074219 C 1307.054688 150.265625 1308.769531 152.488281 1310.445312 154.746094 C 1312.121094 157.003906 1313.753906 159.289062 1315.34375 161.605469 C 1316.933594 163.921875 1318.484375 166.265625 1319.988281 168.640625 C 1321.492188 171.011719 1322.953125 173.414062 1324.367188 175.839844 C 1325.785156 178.265625 1327.15625 180.71875 1328.480469 183.195312 C 1329.804688 185.675781 1331.085938 188.175781 1332.320312 190.699219 C 1333.550781 193.222656 1334.738281 195.769531 1335.878906 198.339844 C 1337.019531 200.90625 1338.109375 203.496094 1339.15625 206.105469 C 1340.199219 208.714844 1341.195312 211.339844 1342.140625 213.984375 C 1343.089844 216.632812 1343.988281 219.292969 1344.835938 221.972656 C 1345.6875 224.648438 1346.488281 227.34375 1347.238281 230.050781 C 1347.988281 232.757812 1348.6875 235.480469 1349.335938 238.214844 C 1349.988281 240.949219 1350.585938 243.691406 1351.136719 246.449219 C 1351.683594 249.203125 1352.183594 251.96875 1352.628906 254.742188 C 1353.074219 257.515625 1353.472656 260.296875 1353.816406 263.085938 C 1354.160156 265.875 1354.453125 268.667969 1354.695312 271.46875 C 1354.9375 274.269531 1355.125 277.070312 1355.265625 279.878906 C 1355.402344 282.683594 1355.488281 285.492188 1355.523438 288.300781 C 1355.558594 291.113281 1355.542969 293.921875 1355.472656 296.730469 C 1355.40625 299.539062 1355.285156 302.347656 1355.113281 305.152344 C 1354.941406 307.957031 1354.71875 310.757812 1354.441406 313.554688 C 1354.167969 316.347656 1353.839844 319.140625 1353.460938 321.925781 C 1353.082031 324.707031 1352.65625 327.484375 1352.175781 330.253906 C 1351.695312 333.023438 1351.164062 335.78125 1350.582031 338.53125 C 1350 341.277344 1349.367188 344.015625 1348.683594 346.742188 C 1348 349.46875 1347.269531 352.179688 1346.484375 354.878906 C 1345.703125 357.578125 1344.871094 360.261719 1343.988281 362.929688 C 1343.105469 365.597656 1342.175781 368.246094 1341.195312 370.878906 C 1340.21875 373.515625 1339.191406 376.128906 1338.113281 378.726562 C 1337.039062 381.320312 1335.914062 383.894531 1334.746094 386.449219 C 1333.574219 389.003906 1332.359375 391.539062 1331.09375 394.046875 C 1329.832031 396.558594 1328.519531 399.042969 1327.164062 401.503906 C 1325.808594 403.964844 1324.410156 406.402344 1322.964844 408.8125 C 1321.519531 411.21875 1320.03125 413.601562 1318.496094 415.957031 C 1316.964844 418.3125 1315.390625 420.636719 1313.769531 422.9375 C 1312.152344 425.234375 1310.492188 427.5 1308.789062 429.734375 C 1307.085938 431.96875 1305.34375 434.175781 1303.5625 436.34375 C 1301.777344 438.515625 1299.957031 440.65625 1298.09375 442.757812 C 1296.230469 444.863281 1294.332031 446.933594 1292.394531 448.96875 C 1290.453125 451 1288.480469 453 1286.46875 454.960938 C 1284.457031 456.921875 1282.410156 458.847656 1280.324219 460.734375 C 1278.242188 462.621094 1276.125 464.464844 1273.976562 466.273438 C 1271.824219 468.082031 1269.640625 469.851562 1267.425781 471.578125 C 1265.210938 473.304688 1262.960938 474.992188 1260.683594 476.636719 C 1258.40625 478.28125 1256.097656 479.886719 1253.761719 481.445312 C 1251.425781 483.003906 1249.058594 484.523438 1246.667969 485.996094 C 1244.273438 487.46875 1241.855469 488.894531 1239.410156 490.28125 C 1236.964844 491.664062 1234.492188 493 1232 494.292969 C 1229.503906 495.585938 1226.984375 496.832031 1224.445312 498.03125 C 1221.902344 499.234375 1219.339844 500.386719 1216.757812 501.492188 C 1214.175781 502.597656 1211.570312 503.652344 1208.949219 504.664062 C 1206.328125 505.671875 1203.6875 506.632812 1201.03125 507.546875 C 1198.371094 508.460938 1195.699219 509.320312 1193.007812 510.136719 C 1190.320312 510.949219 1187.617188 511.714844 1184.898438 512.429688 C 1182.179688 513.144531 1179.453125 513.808594 1176.710938 514.421875 C 1173.96875 515.035156 1171.214844 515.597656 1168.453125 516.109375 C 1165.6875 516.621094 1162.917969 517.082031 1160.136719 517.492188 C 1157.359375 517.902344 1154.570312 518.261719 1151.777344 518.570312 C 1148.984375 518.878906 1146.1875 519.132812 1143.386719 519.335938 C 1140.582031 519.542969 1137.777344 519.695312 1134.96875 519.796875 C 1132.160156 519.898438 1129.351562 519.945312 1126.542969 519.945312 Z M 1126.542969 112.523438 C 1123.128906 112.515625 1119.71875 112.605469 1116.3125 112.792969 C 1112.90625 112.980469 1109.507812 113.265625 1106.113281 113.648438 C 1102.722656 114.03125 1099.347656 114.511719 1095.984375 115.085938 C 1092.621094 115.664062 1089.273438 116.335938 1085.949219 117.101562 C 1082.625 117.871094 1079.324219 118.734375 1076.050781 119.691406 C 1072.773438 120.648438 1069.527344 121.699219 1066.3125 122.839844 C 1063.097656 123.984375 1059.917969 125.21875 1056.773438 126.542969 C 1053.628906 127.867188 1050.523438 129.28125 1047.460938 130.785156 C 1044.394531 132.289062 1041.378906 133.878906 1038.40625 135.554688 C 1035.433594 137.230469 1032.511719 138.992188 1029.640625 140.835938 C 1026.765625 142.679688 1023.949219 144.605469 1021.191406 146.609375 C 1018.429688 148.613281 1015.726562 150.695312 1013.085938 152.855469 C 1010.441406 155.015625 1007.863281 157.25 1005.351562 159.558594 C 1002.835938 161.867188 1000.390625 164.246094 998.011719 166.691406 C 995.636719 169.140625 993.332031 171.652344 991.097656 174.234375 C 988.863281 176.816406 986.707031 179.457031 984.625 182.160156 C 982.542969 184.863281 980.539062 187.625 978.613281 190.445312 C 976.691406 193.261719 974.847656 196.132812 973.089844 199.058594 C 971.332031 201.980469 969.65625 204.953125 968.066406 207.972656 C 966.480469 210.996094 964.976562 214.058594 963.5625 217.164062 C 962.152344 220.269531 960.828125 223.414062 959.59375 226.597656 C 958.363281 229.777344 957.21875 232.992188 956.171875 236.242188 C 955.121094 239.488281 954.167969 242.761719 953.304688 246.066406 C 952.445312 249.367188 951.679688 252.691406 951.007812 256.035156 C 950.339844 259.382812 949.765625 262.746094 949.285156 266.125 C 948.808594 269.503906 948.425781 272.894531 948.144531 276.292969 C 947.859375 279.695312 947.675781 283.101562 947.585938 286.511719 C 947.496094 289.925781 947.507812 293.335938 947.613281 296.746094 C 947.722656 300.15625 947.925781 303.5625 948.226562 306.960938 C 948.53125 310.359375 948.929688 313.746094 949.425781 317.125 C 949.921875 320.5 950.515625 323.859375 951.203125 327.203125 C 951.894531 330.542969 952.675781 333.863281 953.558594 337.160156 C 954.4375 340.457031 955.410156 343.726562 956.476562 346.96875 C 957.542969 350.210938 958.699219 353.421875 959.953125 356.59375 C 961.203125 359.769531 962.542969 362.90625 963.972656 366.003906 C 965.402344 369.105469 966.921875 372.160156 968.527344 375.171875 C 970.132812 378.179688 971.824219 381.144531 973.597656 384.058594 C 975.375 386.972656 977.230469 389.835938 979.171875 392.640625 C 981.109375 395.449219 983.128906 398.199219 985.222656 400.894531 C 987.320312 403.585938 989.492188 406.214844 991.742188 408.78125 C 993.988281 411.351562 996.308594 413.851562 998.699219 416.289062 C 1001.089844 418.722656 1003.550781 421.085938 1006.074219 423.378906 C 1008.601562 425.675781 1011.191406 427.894531 1013.847656 430.039062 C 1016.5 432.183594 1019.214844 434.253906 1021.984375 436.242188 C 1024.757812 438.234375 1027.585938 440.140625 1030.464844 441.96875 C 1033.347656 443.796875 1036.28125 445.542969 1039.261719 447.203125 C 1042.242188 448.859375 1045.269531 450.433594 1048.34375 451.921875 C 1051.414062 453.40625 1054.527344 454.804688 1057.679688 456.113281 C 1060.828125 457.421875 1064.015625 458.636719 1067.238281 459.761719 C 1070.460938 460.886719 1073.710938 461.921875 1076.992188 462.859375 C 1080.273438 463.796875 1083.578125 464.644531 1086.90625 465.390625 C 1090.238281 466.140625 1093.585938 466.796875 1096.949219 467.351562 C 1100.316406 467.910156 1103.699219 468.371094 1107.089844 468.734375 C 1110.484375 469.101562 1113.882812 469.367188 1117.292969 469.535156 C 1120.703125 469.703125 1124.113281 469.777344 1127.523438 469.75 C 1130.9375 469.722656 1134.347656 469.597656 1137.75 469.378906 C 1141.15625 469.15625 1144.554688 468.835938 1147.941406 468.417969 C 1151.328125 468.003906 1154.699219 467.488281 1158.058594 466.878906 C 1161.414062 466.269531 1164.753906 465.566406 1168.070312 464.765625 C 1171.386719 463.964844 1174.679688 463.066406 1177.945312 462.078125 C 1181.210938 461.089844 1184.445312 460.007812 1187.648438 458.832031 C 1190.851562 457.65625 1194.019531 456.390625 1197.152344 455.03125 C 1200.28125 453.675781 1203.371094 452.230469 1206.421875 450.699219 C 1209.46875 449.164062 1212.472656 447.542969 1215.425781 445.835938 C 1218.382812 444.132812 1221.289062 442.34375 1224.140625 440.46875 C 1226.992188 438.597656 1229.789062 436.644531 1232.53125 434.613281 C 1235.273438 432.582031 1237.953125 430.472656 1240.574219 428.285156 C 1243.195312 426.097656 1245.75 423.839844 1248.242188 421.507812 C 1250.730469 419.171875 1253.152344 416.769531 1255.507812 414.300781 C 1257.859375 411.828125 1260.140625 409.289062 1262.347656 406.6875 C 1264.554688 404.085938 1266.6875 401.421875 1268.742188 398.699219 C 1270.796875 395.972656 1272.773438 393.191406 1274.667969 390.355469 C 1276.5625 387.519531 1278.375 384.628906 1280.105469 381.6875 C 1281.835938 378.746094 1283.480469 375.757812 1285.039062 372.71875 C 1286.597656 369.683594 1288.066406 366.605469 1289.449219 363.488281 C 1290.832031 360.367188 1292.125 357.210938 1293.324219 354.015625 C 1294.527344 350.820312 1295.636719 347.59375 1296.652344 344.335938 C 1297.667969 341.078125 1298.589844 337.796875 1299.417969 334.484375 C 1300.246094 331.175781 1300.980469 327.84375 1301.617188 324.488281 C 1302.253906 321.136719 1302.792969 317.769531 1303.238281 314.386719 C 1303.683594 311.003906 1304.03125 307.609375 1304.28125 304.207031 C 1304.53125 300.800781 1304.679688 297.394531 1304.734375 293.980469 C 1304.789062 290.570312 1304.746094 287.160156 1304.605469 283.75 C 1304.464844 280.339844 1304.226562 276.9375 1303.890625 273.539062 C 1303.554688 270.144531 1303.121094 266.761719 1302.589844 263.390625 C 1302.058594 260.019531 1301.433594 256.664062 1300.710938 253.332031 C 1299.988281 249.996094 1299.171875 246.683594 1298.257812 243.394531 C 1297.347656 240.105469 1296.339844 236.847656 1295.242188 233.617188 C 1294.144531 230.386719 1292.953125 227.1875 1291.671875 224.027344 C 1290.386719 220.863281 1289.015625 217.742188 1287.554688 214.65625 C 1286.09375 211.574219 1284.546875 208.53125 1282.910156 205.539062 C 1281.273438 202.542969 1279.554688 199.597656 1277.75 196.699219 C 1275.945312 193.804688 1274.0625 190.960938 1272.09375 188.171875 C 1270.125 185.382812 1268.082031 182.652344 1265.957031 179.984375 C 1263.832031 177.3125 1261.636719 174.703125 1259.363281 172.15625 C 1257.089844 169.613281 1254.746094 167.136719 1252.328125 164.722656 C 1248.210938 160.601562 1243.898438 156.691406 1239.394531 152.992188 C 1234.890625 149.296875 1230.21875 145.824219 1225.375 142.585938 C 1220.53125 139.347656 1215.539062 136.351562 1210.402344 133.601562 C 1205.265625 130.851562 1200.003906 128.359375 1194.621094 126.125 C 1189.238281 123.894531 1183.761719 121.929688 1178.1875 120.230469 C 1172.609375 118.535156 1166.964844 117.117188 1161.25 115.976562 C 1155.539062 114.832031 1149.78125 113.972656 1143.980469 113.398438 C 1138.183594 112.820312 1132.371094 112.527344 1126.542969 112.523438 Z M 1126.542969 112.523438 " fill-opacity="1" fill-rule="nonzero"/><g clip-path="url(#2e3ea65bee)"><path fill="#ffffff" d="M 1451.070312 640.824219 C 1449.421875 640.816406 1447.789062 640.648438 1446.171875 640.320312 C 1444.554688 639.992188 1442.988281 639.511719 1441.464844 638.875 C 1439.945312 638.238281 1438.5 637.460938 1437.132812 636.539062 C 1435.761719 635.617188 1434.496094 634.574219 1433.335938 633.402344 L 1252.832031 453.027344 C 1252.25 452.441406 1251.695312 451.832031 1251.171875 451.195312 C 1250.648438 450.558594 1250.160156 449.898438 1249.703125 449.210938 C 1249.242188 448.527344 1248.820312 447.820312 1248.433594 447.09375 C 1248.042969 446.367188 1247.691406 445.621094 1247.375 444.859375 C 1247.058594 444.097656 1246.78125 443.324219 1246.542969 442.535156 C 1246.304688 441.746094 1246.105469 440.945312 1245.941406 440.136719 C 1245.78125 439.328125 1245.660156 438.515625 1245.582031 437.695312 C 1245.5 436.875 1245.460938 436.050781 1245.460938 435.226562 C 1245.460938 434.402344 1245.5 433.582031 1245.582031 432.761719 C 1245.660156 431.9375 1245.78125 431.125 1245.941406 430.316406 C 1246.105469 429.507812 1246.304688 428.710938 1246.542969 427.921875 C 1246.78125 427.132812 1247.058594 426.355469 1247.375 425.59375 C 1247.691406 424.832031 1248.042969 424.089844 1248.433594 423.363281 C 1248.820312 422.632812 1249.242188 421.929688 1249.703125 421.242188 C 1250.160156 420.558594 1250.648438 419.894531 1251.171875 419.257812 C 1251.695312 418.621094 1252.25 418.011719 1252.832031 417.429688 C 1253.414062 416.84375 1254.023438 416.292969 1254.664062 415.769531 C 1255.300781 415.246094 1255.960938 414.757812 1256.644531 414.296875 C 1257.332031 413.839844 1258.039062 413.417969 1258.765625 413.027344 C 1259.492188 412.640625 1260.238281 412.289062 1261 411.972656 C 1261.761719 411.65625 1262.535156 411.378906 1263.324219 411.140625 C 1264.113281 410.898438 1264.910156 410.699219 1265.71875 410.539062 C 1266.527344 410.378906 1267.34375 410.257812 1268.164062 410.175781 C 1268.984375 410.097656 1269.804688 410.054688 1270.628906 410.054688 C 1271.457031 410.054688 1272.277344 410.097656 1273.097656 410.175781 C 1273.917969 410.257812 1274.734375 410.378906 1275.542969 410.539062 C 1276.351562 410.699219 1277.148438 410.898438 1277.9375 411.140625 C 1278.726562 411.378906 1279.5 411.65625 1280.261719 411.972656 C 1281.023438 412.289062 1281.769531 412.640625 1282.496094 413.027344 C 1283.222656 413.417969 1283.929688 413.839844 1284.613281 414.296875 C 1285.300781 414.757812 1285.960938 415.246094 1286.597656 415.769531 C 1287.238281 416.292969 1287.847656 416.84375 1288.429688 417.429688 L 1468.808594 597.929688 C 1469.675781 598.804688 1470.476562 599.738281 1471.210938 600.730469 C 1471.941406 601.726562 1472.597656 602.765625 1473.175781 603.855469 C 1473.753906 604.941406 1474.253906 606.070312 1474.664062 607.230469 C 1475.078125 608.390625 1475.40625 609.578125 1475.644531 610.789062 C 1475.882812 612 1476.035156 613.21875 1476.09375 614.453125 C 1476.152344 615.683594 1476.121094 616.914062 1476 618.140625 C 1475.878906 619.367188 1475.667969 620.578125 1475.371094 621.777344 C 1475.070312 622.972656 1474.683594 624.140625 1474.214844 625.28125 C 1473.742188 626.421875 1473.191406 627.519531 1472.558594 628.578125 C 1471.925781 629.636719 1471.21875 630.644531 1470.4375 631.597656 C 1469.65625 632.550781 1468.808594 633.445312 1467.898438 634.273438 C 1466.984375 635.105469 1466.015625 635.863281 1464.992188 636.550781 C 1463.96875 637.238281 1462.898438 637.847656 1461.785156 638.378906 C 1460.671875 638.910156 1459.527344 639.355469 1458.347656 639.71875 C 1457.167969 640.078125 1455.96875 640.351562 1454.75 640.539062 C 1453.53125 640.722656 1452.304688 640.820312 1451.070312 640.824219 Z M 1451.070312 640.824219 " fill-opacity="1" fill-rule="nonzero"/></g><path fill="#ffffff" d="M 1070.65625 285.667969 L 1032.324219 285.667969 L 1032.324219 235.214844 L 1070.65625 235.214844 C 1084.589844 235.214844 1095.910156 246.535156 1095.910156 260.441406 C 1095.910156 274.347656 1084.589844 285.667969 1070.65625 285.667969 Z M 1118.730469 260.441406 C 1118.730469 233.9375 1097.160156 212.394531 1070.65625 212.394531 L 1020.914062 212.394531 C 1014.617188 212.394531 1009.503906 217.476562 1009.503906 223.804688 L 1009.503906 352.941406 C 1009.503906 359.269531 1014.617188 364.351562 1020.914062 364.351562 C 1027.214844 364.351562 1032.324219 359.269531 1032.324219 352.941406 L 1032.324219 308.488281 L 1044.566406 308.488281 L 1089.078125 360.367188 C 1091.335938 363.011719 1094.546875 364.351562 1097.753906 364.351562 C 1100.367188 364.351562 1103.011719 363.460938 1105.183594 361.617188 C 1109.964844 357.515625 1110.5 350.296875 1106.402344 345.511719 L 1074.457031 308.3125 C 1099.179688 306.347656 1118.730469 285.667969 1118.730469 260.441406 " fill-opacity="1" fill-rule="nonzero"/><path fill="#ffffff" d="M 1199.019531 341.5 L 1195.125 341.5 L 1195.125 299.78125 L 1199.019531 299.78125 C 1209.386719 299.78125 1217.828125 309.144531 1217.828125 320.640625 C 1217.828125 332.140625 1209.386719 341.5 1199.019531 341.5 Z M 1168.414062 276.960938 C 1158.011719 276.960938 1149.605469 267.601562 1149.605469 256.105469 C 1149.605469 244.605469 1158.011719 235.246094 1168.414062 235.246094 L 1172.304688 235.246094 L 1172.304688 276.960938 Z M 1199.019531 276.960938 L 1195.125 276.960938 L 1195.125 235.246094 L 1199.019531 235.246094 C 1209.386719 235.246094 1217.828125 244.605469 1217.828125 256.105469 C 1217.828125 262.402344 1222.9375 267.515625 1229.238281 267.515625 C 1235.535156 267.515625 1240.648438 262.402344 1240.648438 256.105469 C 1240.648438 232.007812 1221.988281 212.425781 1199.019531 212.425781 L 1195.125 212.425781 L 1195.125 192.992188 C 1195.125 186.664062 1190.015625 181.582031 1183.714844 181.582031 C 1177.417969 181.582031 1172.304688 186.664062 1172.304688 192.992188 L 1172.304688 212.425781 L 1168.414062 212.425781 C 1145.445312 212.425781 1126.785156 232.007812 1126.785156 256.105469 C 1126.785156 280.171875 1145.445312 299.78125 1168.414062 299.78125 L 1172.304688 299.78125 L 1172.304688 341.5 L 1168.414062 341.5 C 1158.011719 341.5 1149.605469 332.140625 1149.605469 320.640625 C 1149.605469 314.34375 1144.492188 309.230469 1138.195312 309.230469 C 1131.894531 309.230469 1126.785156 314.34375 1126.785156 320.640625 C 1126.785156 344.738281 1145.445312 364.320312 1168.414062 364.320312 L 1172.304688 364.320312 L 1172.304688 383.753906 C 1172.304688 390.082031 1177.417969 395.191406 1183.714844 395.191406 C 1190.015625 395.191406 1195.125 390.082031 1195.125 383.753906 L 1195.125 364.320312 L 1199.019531 364.320312 C 1221.988281 364.320312 1240.648438 344.738281 1240.648438 320.640625 C 1240.648438 296.574219 1221.988281 276.960938 1199.019531 276.960938 " fill-opacity="1" fill-rule="nonzero"/><g clip-path="url(#49309d91e9)"><path fill="#ffffff" d="M 1127.320312 470.933594 C 1026.648438 470.933594 944.757812 389.042969 944.757812 288.371094 C 944.757812 187.703125 1026.648438 105.8125 1127.320312 105.8125 C 1166.183594 105.8125 1203.296875 117.875 1234.644531 140.695312 C 1239.753906 144.378906 1240.855469 151.542969 1237.171875 156.621094 C 1233.457031 161.703125 1226.296875 162.832031 1221.214844 159.148438 C 1193.820312 139.179688 1161.339844 128.632812 1127.320312 128.632812 C 1039.25 128.632812 967.578125 200.300781 967.578125 288.371094 C 967.578125 376.445312 1039.25 448.113281 1127.320312 448.113281 C 1215.390625 448.113281 1287.058594 376.445312 1287.058594 288.371094 C 1287.058594 261.867188 1280.433594 235.632812 1267.925781 212.484375 C 1264.921875 206.957031 1266.972656 200.035156 1272.53125 197.03125 C 1278.085938 194.03125 1284.980469 196.082031 1287.980469 201.640625 C 1302.304688 228.113281 1309.878906 258.09375 1309.878906 288.371094 C 1309.878906 389.042969 1227.988281 470.933594 1127.320312 470.933594 " fill-opacity="1" fill-rule="nonzero"/></g><path fill="#ffffff" d="M 1257.554688 188.714844 C 1254.34375 188.714844 1251.136719 187.375 1248.878906 184.730469 L 1246.828125 182.355469 C 1242.636719 177.660156 1243.054688 170.4375 1247.777344 166.25 C 1252.472656 162.058594 1259.695312 162.503906 1263.882812 167.199219 L 1266.230469 169.875 C 1270.300781 174.6875 1269.738281 181.878906 1264.953125 185.980469 C 1262.8125 187.820312 1260.167969 188.714844 1257.554688 188.714844 " fill-opacity="1" fill-rule="nonzero"/></svg>