<svg xmlns="http://www.w3.org/2000/svg" viewBox="0 0 1024 1024">
  <defs>
    <linearGradient id="bg" x1="0" y1="0" x2="1" y2="1">
      <stop offset="0" stop-color="#1A8BEA"/>
      <stop offset="0.55" stop-color="#0B67C2"/>
      <stop offset="1" stop-color="#063C78"/>
    </linearGradient>
  </defs>
  <rect width="1024" height="1024" rx="230" fill="url(#bg)"/>
  <circle cx="820" cy="90" r="250" fill="#21A67A" opacity="0.9"/>
  <rect x="170" y="180" width="565" height="610" rx="78" fill="#fff"/>
  <rect x="220" y="250" width="465" height="130" rx="34" fill="#EAF5FF"/>
  <text x="255" y="330" font-size="74" font-weight="700" font-family="Arial, sans-serif" fill="#0B67C2">CLT</text>
  <g fill="#DDF2FF"><rect x="230" y="430" width="105" height="70" rx="22"/><rect x="375" y="430" width="105" height="70" rx="22"/><rect x="230" y="535" width="105" height="70" rx="22"/><rect x="520" y="640" width="105" height="70" rx="22"/></g>
  <g fill="#E8F7F1"><rect x="520" y="430" width="105" height="70" rx="22"/><rect x="375" y="535" width="105" height="70" rx="22"/><rect x="230" y="640" width="105" height="70" rx="22"/></g>
  <rect x="520" y="535" width="105" height="70" rx="22" fill="#FFF2CF"/>
  <rect x="375" y="640" width="105" height="70" rx="22" fill="#DDF2FF"/>
  <circle cx="735" cy="300" r="150" fill="#F4B740" stroke="#fff" stroke-width="18"/>
  <text x="665" y="326" font-size="78" font-weight="700" font-family="Arial, sans-serif" fill="#073E78">R$</text>
  <path d="M595 705 L690 800 L875 585" fill="none" stroke="#21C786" stroke-width="62" stroke-linecap="round" stroke-linejoin="round"/>
  <path d="M595 705 L690 800 L875 585" fill="none" stroke="#fff" stroke-width="24" stroke-linecap="round" stroke-linejoin="round"/>
</svg>